<?xml version="1.0"?>
<!-- Copyright © fordownloads, 2020 · OrangeFox Recovery -->
<svg xmlns="http://www.w3.org/2000/svg" xmlns:xlink="http://www.w3.org/1999/xlink" viewBox="0 0 240.8 116.6">
	<style>
		.text-four {animation: text 3s ease-in-out infinite alternate}
		.text-zero {animation: text 3s ease-in-out infinite alternate-reverse}
		.saturn    {animation: rotate 3s ease-in-out infinite alternate;transform-origin:bottom right}
		.fox       {animation: rotate 3s ease-in-out infinite alternate}
		.text-out  {fill:#527684}
		.stars {
			animation: stars 3s ease-in-out infinite alternate;
			fill:#f4efd9;
			opacity:.2
		}
		
		@keyframes text {
			0%   {transform:translateY(-1px)}
			100% {transform:translateY(1px)}
		}
		@keyframes rotate {
			0%   {transform:rotate(-.5deg)}
			100% {transform:rotate(.5deg)}
		}
		@keyframes stars {
			0%   {opacity:0.1}
			50% {opacity:0.2}
			100% {opacity:0.1}
		}
	</style>
	<defs>
		<linearGradient id="a" x1="49.45" x2="28.75" y1="42.52" y2="21.81" gradientUnits="userSpaceOnUse">
			<stop offset="0" stop-color="#e7a364"/>
			<stop offset="1" stop-color="#ffc18c"/>
		</linearGradient>
		<linearGradient id="p" x1="220.21" x2="211.49" y1="74.13" y2="100.75" gradientTransform="rotate(1.86 205.68 84)" gradientUnits="userSpaceOnUse">
			<stop offset="0" stop-color="#e3e1d5"/>
			<stop offset="1" stop-color="#cfdbce"/>
		</linearGradient>
		<linearGradient id="q" x1="211.62" x2="235.8" y1="68.78" y2="68.78" gradientUnits="userSpaceOnUse">
			<stop offset="0" stop-color="#cfdbce"/>
			<stop offset="1" stop-color="#e3e1d5"/>
		</linearGradient>
		<linearGradient id="r" x1="219.06" x2="226.99" y1="77.45" y2="63.71" gradientUnits="userSpaceOnUse">
			<stop offset="0" stop-color="#010100"/>
			<stop offset="1" stop-color="#2f2b2c"/>
		</linearGradient>
		<linearGradient id="s" x1="221.01" x2="216.13" y1="56.84" y2="65.3" gradientUnits="userSpaceOnUse">
			<stop offset="0" stop-color="#c2c2c2"/>
			<stop offset="1" stop-color="#bfbfbf"/>
		</linearGradient>
		<linearGradient id="u" x1="230" x2="230" y1="70"  gradientUnits="userSpaceOnUse">
			<stop offset="0" stop-color="#0b0123"/>
			<stop offset="1" stop-color="#343A51"/>
		</linearGradient>
		<linearGradient id="z" x1="81.67" x2="92.13" y1="92.94" y2="33.64" gradientUnits="userSpaceOnUse">
			<stop offset="0" stop-color="#7e919e"/>
			<stop offset="1" stop-color="#8fa4b3"/>
		</linearGradient>
		<linearGradient id="n" x1="204.91" x2="210.01" y1="90.68" y2="68.59" gradientTransform="rotate(27.65 197.5 83.5)" xlink:href="#l"/>
		<linearGradient id="o" x1="211.92" x2="218.39" y1="117.14" y2="93.75" gradientTransform="rotate(-5.46 203.99 96.33)" xlink:href="#m"/>
		
		<linearGradient id="b" x1="55.66" x2="36.35" y1="25.73" y2="33.54" gradientUnits="userSpaceOnUse">
			<stop offset="0" stop-color="#b33157" stop-opacity=".4"/>
			<stop offset=".08" stop-color="#b83d58" stop-opacity=".35"/>
			<stop offset=".28" stop-color="#c1515b" stop-opacity=".26"/>
			<stop offset=".53" stop-color="#c65d5d" stop-opacity=".21"/>
			<stop offset="1" stop-color="#c8605d" stop-opacity=".2"/>
		</linearGradient>
		<linearGradient id="i" x1="24.17" x2="69.31" y1="39.63" y2="39.63" gradientUnits="userSpaceOnUse">
			<stop offset="0" stop-color="#e7bc94" stop-opacity=".8"/>
			<stop offset="1" stop-color="#ffd0a8" stop-opacity=".8"/>
		</linearGradient>
		<linearGradient id="w" x1="176.72" x2="180.43" y1="108.37" y2="108.37" gradientTransform="matrix(.2806 -.69452 .90385 .36518 65.28 178.9)" gradientUnits="userSpaceOnUse">
			<stop offset="0" stop-color="#b8b8b8"/>
			<stop offset=".18" stop-color="#c2c1bb"/>
			<stop offset=".46" stop-color="#cac8be"/>
			<stop offset="1" stop-color="#cccabf"/>
		</linearGradient>
		<linearGradient id="l" x1="217.75" x2="222.85" y1="103.44" y2="81.34" gradientTransform="rotate(-132.96 221.6 85.14)" gradientUnits="userSpaceOnUse">
			<stop offset="0" stop-color="#9c9c9c"/>
			<stop offset=".12" stop-color="#9e9e9e"/>
			<stop offset=".16" stop-color="#a5a4a3"/>
			<stop offset=".19" stop-color="#b0b0ac"/>
			<stop offset=".21" stop-color="#c1c0ba"/>
			<stop offset=".23" stop-color="#d7d5cb"/>
			<stop offset=".24" stop-color="#e3e1d5"/>
			<stop offset="1" stop-color="#cfdbce"/>
		</linearGradient>
		<linearGradient id="m" x1="201.29" x2="213.61" y1="112.33" y2="91" gradientUnits="userSpaceOnUse">
			<stop offset="0" stop-color="#e3e1d5"/>
			<stop offset=".34" stop-color="#e4dbd1"/>
			<stop offset=".34" stop-color="#e4d9d0"/>
			<stop offset=".34" stop-color="#ebb5bb"/>
			<stop offset=".34" stop-color="#f096a8"/>
			<stop offset=".35" stop-color="#f57a98"/>
			<stop offset=".35" stop-color="#f9648b"/>
			<stop offset=".36" stop-color="#fb5381"/>
			<stop offset=".36" stop-color="#fe487a"/>
			<stop offset=".37" stop-color="#ff4176"/>
			<stop offset=".39" stop-color="#ff3f75"/>
			<stop offset=".41" stop-color="#fe4176"/>
			<stop offset=".41" stop-color="#fc487a"/>
			<stop offset=".42" stop-color="#f95381"/>
			<stop offset=".42" stop-color="#f4648a"/>
			<stop offset=".43" stop-color="#ed7a97"/>
			<stop offset=".43" stop-color="#e496a6"/>
			<stop offset=".43" stop-color="#dbb5b8"/>
			<stop offset=".43" stop-color="#d0d9cd"/>
			<stop offset=".43" stop-color="#cfdbce"/>
			<stop offset="1" stop-color="#cfdbce"/>
		</linearGradient>
	</defs>

	<path fill="url(#u)" d="M239.85 106.45c-4.84 7.48-20.9-2.1-48.7.74-23.61 2.42-24.16 10.58-42.53 9.15-18.07-1.4-20.31-9.51-37.77-8.22-12.05.9-15.11 5.07-28.44 4.1-7.77-.58-11-2.3-19.79-1.86-9.54.48-9.2 2.7-17.94 3.34-14.1 1.03-16.2-4.64-29.74-2.97-6.91.84-9.53 2.7-12.18.75-3.45-2.54-3.02-8.59-2.13-19.34.9-10.93 2.32-12.04 2.6-20.08.34-9.78-1.71-9.63-1.67-19.51.04-11.28 2.71-11.9 3.53-25.1.8-13.16-1.63-16.14 1.3-19.51 4.34-5 12.27-1.42 28.44-.93 16.64.5 15.98-3.06 39.22-4.28 18.32-.96 16.74 1.34 35.13.37C130 2 132.83-.97 146.9.32c15.38 1.4 13.28 5.07 27.88 6.32 11.05.94 15.85-.86 44.24-1.5 7.91-.17 14.89-.2 17.66 4.1 2 3.1.56 6.53-.38 11.9-2.1 12.04 1.78 14.22 2.05 29.18.3 16.65-4.48 16.27-3.53 29.92 1.13 16.4 8.29 21.14 5.02 26.21z"/>
	
	<g class="stars">
		<circle cx="125.82" cy="23.6" r="1.37"/>
		<circle cx="178.88" cy="32.07" r="1.37"/>
		<circle cx="160.41" cy="22.49" r="1.37"/>
		<circle cx="131.13" cy="52.47" r=".94"/>
		<circle cx="109.45" cy="22.54" r=".94"/>
		<circle cx="113.77" cy="36.19" r=".94"/>
		<circle cx="171.17" cy="35.72" r="1.37"/>
		<circle cx="127.66" cy="67.25" r="1.37"/>
		<circle cx="147.49" cy="60.96" r="1.37"/>
		<circle cx="146.99" cy="19.07" r=".94"/>
		<circle cx="183.49" cy="24.89" r=".94"/>
		<circle cx="170.79" cy="18.31" r=".94"/>
		<circle cx="111.49" cy="51.38" r="2.05"/>
		<circle cx="171.2" cy="52.24" r="2.05"/>
		<circle cx="143.56" cy="37.91" r="2.05"/>
		<circle cx="99.77" cy="82.77" r="1.41"/>
		<circle cx="92.84" cy="42.99" r="1.41"/>
		<circle cx="71.25" cy="67.25" r="1.41"/>
		<circle cx="159.66" cy="57.71" r="2.05"/>
		<circle cx="88.88" cy="53.79" r="2.05"/>
		<circle cx="116.51" cy="68.13" r="2.05"/>
		<circle cx="123.5" cy="32.78" r="1.41"/>
		<circle cx="178.11" cy="41.5" r="1.41"/>
		<circle cx="159.1" cy="31.65" r="1.41"/>
		<circle cx="66.99" cy="89.5" r="1.37"/>
		<circle cx="13.94" cy="81.03" r="1.37"/>
		<circle cx="32.41" cy="90.6" r="1.37"/>
		<circle cx="61.68" cy="60.63" r=".94"/>
		<circle cx="83.37" cy="90.56" r=".94"/>
		<circle cx="79.04" cy="76.91" r=".94"/>
		<circle cx="21.65" cy="77.37" r="1.37"/>
		<circle cx="65.15" cy="45.85" r="1.37"/>
		<circle cx="11.25" cy="52.47" r="1.37"/>
		<circle cx="45.82" cy="94.03" r=".94"/>
		<circle cx="9.32" cy="88.2" r=".94"/>
		<circle cx="22.03" cy="94.79" r=".94"/>
		<circle cx="81.32" cy="61.71" r="2.05"/>
		<circle cx="21.61" cy="60.85" r="2.05"/>
		<circle cx="48.01" cy="65.88" r="2.05"/>
		<circle cx="93.05" cy="30.33" r="1.41"/>
		<circle cx="99.97" cy="70.11" r="1.41"/>
		<circle cx="121.57" cy="45.85" r="1.41"/>
		<circle cx="33.15" cy="55.39" r="2.05"/>
		<circle cx="13.3" cy="15.13" r="2.05"/>
		<circle cx="76.3" cy="44.97" r="2.05"/>
		<circle cx="69.32" cy="80.31" r="1.41"/>
		<circle cx="14.7" cy="71.59" r="1.41"/>
		<circle cx="33.72" cy="81.45" r="1.41"/>
		<circle cx="212.36" cy="16.85" r="1.37"/>
		<circle cx="144.35" cy="99.92" r="1.37"/>
		<circle cx="192.73" cy="35.46" r="1.37"/>
		<circle cx="220.42" cy="45.08" r=".94"/>
		<circle cx="195.96" cy="17.36" r=".94"/>
		<circle cx="201.58" cy="30.53" r=".94"/>
		<circle cx="139.98" cy="92.6" r="1.37"/>
		<circle cx="229.35" cy="96.22" r="1.37"/>
		<circle cx="233.95" cy="51.09" r="1.37"/>
		<circle cx="233.01" cy="10.31" r=".94"/>
		<circle cx="151.94" cy="103.83" r=".94"/>
		<circle cx="157.28" cy="90.55" r=".94"/>
		<circle cx="200.76" cy="45.88" r="2.05"/>
		<circle cx="123.54" cy="94.21" r="2.05"/>
		<circle cx="231.4" cy="29.4" r="2.05"/>
		<circle cx="32.31" cy="15.48" r="1.41"/>
		<circle cx="178.65" cy="62.85" r="1.41"/>
		<circle cx="159.48" cy="89.07" r="1.41"/>
		<circle cx="175.73" cy="95.73" r="2.05"/>
		<circle cx="175.73" cy="73.99" r="2.05"/>
		<circle cx="166.92" cy="105.68" r="2.05"/>
		<circle cx="210.93" cy="26.21" r="1.41"/>
		<circle cx="134.89" cy="100.06" r="1.41"/>
		<circle cx="192.3" cy="44.69" r="1.41"/>
		<circle cx="115.02" cy="14.71" r="1.37"/>
		<circle cx="61.4" cy="11.36" r="1.37"/>
		<circle cx="80.7" cy="19.12" r="1.37"/>
		<circle cx="149.32" cy="83.39" r=".94"/>
		<circle cx="131.42" cy="14.19" r=".94"/>
		<circle cx="92.09" cy="101.36" r=".94"/>
		<circle cx="55.14" cy="103.64" r="1.37"/>
		<circle cx="151.36" cy="68.35" r="1.37"/>
		<circle cx="132.22" cy="76.51" r="1.37"/>
		<circle cx="94.38" cy="21.25" r=".94"/>
		<circle cx="57.49" cy="18.94" r=".94"/>
		<circle cx="70.77" cy="24.28" r=".94"/>
		<circle cx="168.97" cy="82.59" r="2.05"/>
		<circle cx="109.46" cy="87.46" r="2.05"/>
		<circle cx="53.74" cy="80.54" r="2.05"/>
		<circle cx="177.64" cy="50.23" r="1.41"/>
		<circle cx="191.09" cy="65.62" r="1.41"/>
		<circle cx="210.26" cy="39.4" r="1.41"/>
		<circle cx="120.42" cy="80.91" r="2.05"/>
		<circle cx="194" cy="54.49" r="2.05"/>
		<circle cx="162.37" cy="66.41" r="2.05"/>
		<circle cx="82.74" cy="105.68" r="1.41"/>
		<circle cx="12.57" cy="102.89" r="1.41"/>
		<circle cx="12.57" cy="32.16" r="1.41"/>
	</g>
	
	<g class="saturn">
		<circle cx="39.1" cy="32.16" r="14.64" fill="url(#a)"/>
		<g fill="url(#b)">
			<path d="M54.9 26.77a33.79 33.79 0 01-5.42 2.43 34.51 34.51 0 01-14.19 1.72c0 .14 9.19 1.75 19.76-1.95a41.4 41.4 0 001.66-.62 19.88 19.88 0 00-1.8-1.58z" transform="translate(-7.24 -6.52)"/>
			<path d="M31.75 37.5a54.58 54.58 0 0014.1-2.41 54.46 54.46 0 009.89-4.19 45.46 45.46 0 01-16.54 4.6 44.39 44.39 0 01-7.15 0 14.8 14.8 0 00-.3 2z" transform="translate(-7.24 -6.52)"/>
			<path d="M59.92 33.18a53.82 53.82 0 01-9.14 3.26c-6.66 1.72-11.76 1.66-11.75 1.87.01.21 5 .44 11-.44A58.4 58.4 0 0060.6 35.3a14.34 14.34 0 00-.67-2.12z" transform="translate(-7.24 -6.52)"/>
			<path d="M33.05 44.83c2.8-.54 6.92-1.38 11.9-2.55 6.18-1.44 10.13-2.57 10.12-2.63a99.5 99.5 0 01-13.55 2.54 79.31 79.31 0 01-9.28.45 14.41 14.41 0 00.8 2.19z" transform="translate(-7.24 -6.52)"/>
			<path d="M60.84 40.8a44.68 44.68 0 01-5.5 2.32A49.3 49.3 0 0140.6 45.7a113.32 113.32 0 0013.93-.98c2.22-.25 4.08-.5 5.44-.7.17-.44.34-.93.49-1.48a15.73 15.73 0 00.38-1.74z" transform="translate(-7.24 -6.52)"/>
			<path d="M34.83 29.64c13.11-3.18 16.23-4.11 16.19-4.3-.04-.18-3.8 1.78-8.52 1.28-1.2-.13-3.86-.56-5.73.99l-.26.23a12.1 12.1 0 00-1.68 1.8z" transform="translate(-7.24 -6.52)"/>
			<path d="M37.67 50.5a81.77 81.77 0 0010.67-1.3 49.2 49.2 0 006.91-1.7 59.74 59.74 0 01-10.34 1.6 43.47 43.47 0 01-9.4-.57 17.75 17.75 0 002.16 1.98z" transform="translate(-7.24 -6.52)"/>
		</g>
		<path fill="url(#i)" d="M69.09 30.75c-.72-1.65-3.5-3.1-12.38-2.4l2.6 3.5c3.6-.38 4.57.14 4.8.68.87 2.07-7.4 8.5-16.39 11.66-8.05 2.83-17.8 3.45-18.57 1.2-.35-1 1.16-2.49 2.96-3.85l-.4-3.5c-6.92 4.94-7.9 7.62-7.45 9.16 1.32 4.46 16.48 5.7 28.39.46 9.41-4.13 18.19-12.91 16.44-16.91z" transform="translate(-7.24 -6.52)"/>
	</g>
	
	<g class="fox">
		<g fill="url(#w)">
			<rect width="23.22" height="20.88" x="204.88" y="76.85" rx="2" transform="rotate(-68 208.03 89.4)"/>
			<rect width="5.75" height="2.43" x="209.44" y="64.09" rx=".5" transform="rotate(-71.81 204.19 67.05)"/>
		</g>
		
		<path fill="url(#l)" d="M239.78 80.1c.14 3.8-6.49 7.68-12.37 8.05-1.05.06-6.17.38-9.9-3.15-1.68-1.6-3.4-4.3-2.69-5.22 1.01-1.3 5.25 3.05 11.2 2.48 6.34-.62 9.72-6.37 12.4-4.76a3.4 3.4 0 011.36 2.6z" transform="translate(-7.24 -6.52)"/>
		<path fill="url(#n)" d="M197.16 89.67c-1.4-3.53 3.57-9.4 9-11.7.96-.4 5.69-2.4 10.38-.3 2.12.95 4.64 2.92 4.27 4.02-.53 1.56-5.97-1.13-11.38 1.38-5.79 2.69-7.07 9.24-10.13 8.61a3.4 3.4 0 01-2.14-2z" transform="translate(-7.24 -6.52)"/>
		
		<path fill="url(#m)" d="M200.99 112.1c-2.88-2.5-1.2-9.99 2.54-14.54.66-.81 3.92-4.77 9.05-5.1 2.32-.13 5.47.44 5.65 1.6.26 1.62-5.81 1.75-9.44 6.5-3.88 5.06-1.98 11.45-4.98 12.32a3.4 3.4 0 01-2.82-.79z" transform="translate(-7.24 -6.52)"/>
		<path fill="url(#o)" d="M214.11 116.3c-3.52-1.2-4.76-8.61-3.04-14.12.3-.98 1.8-5.78 6.34-7.95 2.06-.99 5.13-1.62 5.71-.65.84 1.38-4.62 3.74-6.17 9.38-1.66 6.02 2.42 11.12.02 13.02a3.33 3.33 0 01-2.86.32z" transform="translate(-7.24 -6.52)"/>
		
		<path fill="url(#p)" d="M203.36 94.03a6.85 6.85 0 01.96-3.03c.9-1.54 1.85-1.82 2.9-3.5a10.62 10.62 0 001.16-2.69c.35-1.05 1.87-5.6 4-7.71 2.6-2.56 7.97-3.4 10.99-1.21 4.36 3.17 2.1 11.69 1.05 15.66-1.1 4.21-1.99 7.56-4.98 9.22-6 3.33-16.07-2.68-16.08-6.74z" transform="translate(-7.24 -6.52)"/>
		<path fill="url(#q)" d="M212.85 64.8c-.64 1.87-2.16 6.24-.43 10.3 2.09 4.91 7.44 5.82 8.95 6.07 1.26.21 6.03 1.02 9.85-2.57 2.88-2.72 3.48-6.32 4.19-10.61.26-1.6.84-5.12-.26-5.8-1.22-.74-3.1 2.87-5.7 2.26-1.36-.31-1.29-1.39-3.36-2.26-2.02-.85-2.78-.12-3.68-1.02-1.45-1.44-.28-4.12-1.36-4.85-1.27-.87-4.13 1.94-5.49 3.62a16.56 16.56 0 00-2.7 4.87z" transform="translate(-7.24 -6.52)"/>
		<path fill="url(#r)" d="M213.04 65.52a12.17 12.17 0 0120.4 9.38c-4.27 4.28-10.76 4.99-15.31 1.98a12.07 12.07 0 01-5.1-11.36z" transform="translate(-7.24 -6.52)"/>
		
		<g fill="url(#s)">
			<path d="M213.94 64.03c-.76-.7 4.6-7.55 6.45-7.41a1.01 1.01 0 01.56.2c.5.42.13 1.23.25 2.44.13 1.41.75 1.65.5 2.17-.36.78-1.8.38-3.91.9-2.62.65-3.52 2-3.85 1.7z" transform="translate(-7.24 -6.52)"/>
			<path d="M235.09 68.33s.69-3.76.38-5.15a.86.86 0 00-.25-.47.84.84 0 00-.48-.2c-.52 0-1.69 1.03-1.69 1.03a5.35 5.35 0 01-1.28.87c-1.13.5-1.98.18-2.1.51-.1.28.44.6 1.16 1.42a12.32 12.32 0 011.24 1.78c1.45 2.32 1.47 4.52 1.88 4.5.13-.01.23-.22.53-1.49.37-1.5.57-2.63.6-2.8z" transform="translate(-7.24 -6.52)"/>
		</g>
		
		<g fill="url(#w)">
			<path d="M224.57 91.01l-.34 1.3a34.72 34.72 0 01-16.28-6.21l.43-1.29a49.41 49.41 0 0016.19 6.2z" transform="translate(-7.24 -6.52)"/>
			<rect width="7.88" height="10.8" x="211.76" y="83.43" rx="1" transform="rotate(-68 207.24 90.94)"/>
			<path d="M222.82 96.78l-.5.97a32.74 32.74 0 01-18-6.75l.48-.58a35.96 35.96 0 0018.02 6.36z" transform="translate(-7.24 -6.52)"/>
			<rect width="5.75" height=".75" x="210.88" y="59.97" rx=".21" transform="rotate(-71.81 205.63 62.09)"/>
		</g>
	</g>
	
	<g class="text">
		<g class="text-four">
			<path fill="url(#z)" d="M90.94 94.5a4.73 4.73 0 01-4.72-4.72V81.6H68.4a4.73 4.73 0 01-4.72-4.72 4.67 4.67 0 01.88-2.74l21.93-37.97a5.76 5.76 0 014.46-2.68 4.73 4.73 0 014.73 4.72v33.95h4.94a4.72 4.72 0 110 9.44h-4.94v8.17a4.73 4.73 0 01-4.73 4.72zm-4.72-22.33V55.5l-9.61 16.66z" transform="translate(-7.24 -6.52)"/>
			
			<path fill="url(#z)" d="M177.94 94.5a4.73 4.73 0 01-4.72-4.72V81.6H155.4a4.73 4.73 0 01-4.72-4.72 4.67 4.67 0 01.88-2.74l21.93-37.97a5.54 5.54 0 013.12-2.49 5.17 5.17 0 011.34-.19 4.73 4.73 0 014.73 4.72v33.95h4.94a4.72 4.72 0 010 9.44h-4.94v8.17a4.73 4.73 0 01-4.73 4.72zm-4.72-22.33V55.5l-9.62 16.66z" transform="translate(-7.24 -6.52)"/>
		
			<g class="text-out">
				<path d="M83.7 28.48a3.22 3.22 0 013.22 3.22v35.45h6.45a3.22 3.22 0 110 6.44h-6.45v9.67a3.22 3.22 0 01-6.44 0v-9.67H61.14a3.2 3.2 0 01-2.57-5.14l21.96-38.04a4.32 4.32 0 013.17-1.93M66.76 67.15h13.72V43.39L66.76 67.15M83.7 25.48a7.23 7.23 0 00-5.77 3.43L56.04 66.82a6.16 6.16 0 00-1.12 3.55 6.23 6.23 0 006.22 6.22h16.34v6.67a6.22 6.22 0 0012.44 0v-6.67h3.45a6.22 6.22 0 100-12.44h-3.45V31.7a6.23 6.23 0 00-6.22-6.22zM71.96 64.15l5.52-9.56v9.56z"/>
				<path d="M170.7 28.48a3.22 3.22 0 013.22 3.22v35.45h6.45a3.22 3.22 0 010 6.44h-6.45v9.67a3.22 3.22 0 01-6.44 0v-9.67h-19.34a3.2 3.2 0 01-2.57-5.14l21.96-38.04a4.06 4.06 0 012.25-1.8 3.67 3.67 0 01.92-.13m-16.94 38.67h13.72V43.39l-13.72 23.76m16.94-41.67a6.6 6.6 0 00-1.76.25 7 7 0 00-3.96 3.1l-.05.08-21.89 37.91a6.16 6.16 0 00-1.12 3.55 6.23 6.23 0 006.22 6.22h16.34v6.67a6.22 6.22 0 0012.44 0v-6.67h3.45a6.22 6.22 0 000-12.44h-3.45V31.7a6.23 6.23 0 00-6.22-6.22zm-11.74 38.67l5.52-9.56v9.56z"/>
				
				<circle cx="87.26" cy="41.98" r="2.5"/>
				<circle cx="80.26" cy="50.98" r="2.5"/>
				<circle cx="83.26" cy="61.98" r="2.5"/>
				<circle cx="75.76" cy="41.48" r="3"/>
				<circle cx="81.76" cy="30.48" r="2"/>
				<circle cx="60.26" cy="71.98" r="3.5"/>
				<circle cx="66.26" cy="56.98" r="2.5"/>
				<circle cx="77.76" cy="72.48" r="4"/>
				<circle cx="91.26" cy="71.98" r="2.5"/>
				<circle cx="81.76" cy="82.48" r="3"/>
				
				<circle cx="160.26" cy="42.98" r="2.5"/>
				<circle cx="173.26" cy="35.98" r="2.5"/>
				<circle cx="167.26" cy="38.98" r="2.5"/>
				<circle cx="152.26" cy="72.98" r="3.5"/>
				<circle cx="152.76" cy="59.48" r="4"/>
				<circle cx="167.26" cy="63.98" r="2.5"/>
				<circle cx="174.76" cy="72.48" r="3"/>
				<circle cx="171.26" cy="52.98" r="2.5"/>
				<circle cx="168.26" cy="78.98" r="2.5"/>
			</g>
		</g>
		<g class="text-zero">
			<path fill="url(#z)" d="M128 94.5c-11.27 0-20.43-13.68-20.43-30.5s9.16-30.5 20.43-30.5 20.43 13.68 20.43 30.5-9.16 30.5-20.43 30.5zm0-51.56c-6.61 0-12.2 9.65-12.2 21.06 0 11.41 5.59 21.06 12.2 21.06 6.61 0 12.2-9.65 12.2-21.06 0-11.41-5.59-21.06-12.2-21.06z" transform="translate(-7.24 -6.52)"/>
		
			<g class="text-out">
				<path d="M120.76 28.48c10.45 0 18.93 12.98 18.93 29s-8.48 29-18.93 29-18.93-12.98-18.93-29 8.47-29 18.93-29m0 51.56c7.56 0 13.69-10.1 13.69-22.56s-6.13-22.56-13.7-22.56-13.69 10.1-13.69 22.56 6.13 22.56 13.7 22.56m0-54.56c-6.1 0-11.75 3.5-15.9 9.85-3.9 5.96-6.03 13.83-6.03 22.15s2.14 16.19 6.03 22.15c4.15 6.35 9.8 9.85 15.9 9.85s11.75-3.5 15.9-9.85c3.88-5.96 6.03-13.83 6.03-22.15s-2.15-16.19-6.04-22.15c-4.14-6.35-9.79-9.85-15.9-9.85zm0 51.56c-5.8 0-10.7-8.96-10.7-19.56s4.9-19.56 10.7-19.56 10.69 8.96 10.69 19.56-4.9 19.56-10.7 19.56z"/>
				
				<circle cx="117.26" cy="30.98" r="3.5"/>
				<circle cx="118.26" cy="80.98" r="2.5"/>
				<circle cx="137.26" cy="61.98" r="2.5"/>
				<circle cx="130.76" cy="80.48" r="3"/>
				<circle cx="103.26" cy="60.98" r="2.5"/>
				<circle cx="111.26" cy="72.98" r="1.5"/>
				<circle cx="136.26" cy="48.98" r="1.5"/>
				<circle cx="105.26" cy="44.98" r="1.5"/>
				<circle cx="129.26" cy="37.98" r="1.5"/>
			</g>
		</g>
	</g>
</svg>