<svg xmlns="http://www.w3.org/2000/svg" xmlns:xlink="http://www.w3.org/1999/xlink" viewBox="0 0 512 288"><defs><clipPath id="a"><rect x="357" y="3" width="106" height="8" fill="none"/></clipPath><clipPath id="b"><rect x="357" y="198" width="106" height="15" transform="translate(820 411) rotate(180)" fill="none"/></clipPath><linearGradient id="c" x1="62.43" y1="-36.04" x2="236.38" y2="265.24" gradientUnits="userSpaceOnUse"><stop offset="0" stop-color="#ff2a7d"/><stop offset="1" stop-color="#e97500"/></linearGradient></defs><path d="M339,251a11.3,11.3,0,0,1,4,2c4.7,3.8,2.5,10.4,6,15,1.2,1.6,5.4,6.6,14,10,13.2,5.2,25.8,2.3,33,1,32.6-5.8,38.7,6.9,83,1,13.1-1.7,23.3-4.3,27-12a16.9,16.9,0,0,0-1-16c-6.7-10.2-25.1-8.8-36-8-17.1,1.3-18.1,6.9-32.5,8.5-11.7,1.3-19,1-24-4s-2.1-12.3-2.5-14.5" fill="none" stroke="#d3d3d3" stroke-linecap="round" stroke-miterlimit="10" stroke-width="3"/><path d="M339,251h0a2.9,2.9,0,0,1-3,3H321v-6h15A2.9,2.9,0,0,1,339,251Z" fill="#c6c5c4"/><path d="M0,244H315a7,7,0,0,1,7,7h0a7,7,0,0,1-7,7H0Z" fill="#93929a"/><rect width="307" height="244" fill="#0d1319"/><rect x="356.5" y="0.5" width="107" height="215" rx="19.3" fill="#303030"/><path d="M444.2,1A18.8,18.8,0,0,1,463,19.8V196.2A18.8,18.8,0,0,1,444.2,215H375.8A18.8,18.8,0,0,1,357,196.2V19.8A18.8,18.8,0,0,1,375.8,1h68.4m0-1H375.8A19.7,19.7,0,0,0,356,19.8V196.2A19.7,19.7,0,0,0,375.8,216h68.4A19.7,19.7,0,0,0,464,196.2V19.8A19.7,19.7,0,0,0,444.2,0Z" fill="#4f4f4f"/><rect x="357" y="3" width="106" height="210" rx="19.8" fill="#1a1a1a"/><rect x="365" y="36" width="40" height="24" rx="4" fill="#616161"/><rect x="415" y="36" width="40" height="24" rx="4" fill="#616161"/><rect x="365" y="68" width="40" height="24" rx="4" fill="#616161"/><rect x="415" y="68" width="40" height="24" rx="4" fill="#616161"/><path d="M463,29H357V22.8A19.7,19.7,0,0,1,376.8,3h66.4A19.7,19.7,0,0,1,463,22.8Z" fill="#0091ca"/><g clip-path="url(#a)"><path d="M463,27H357V22.8A19.7,19.7,0,0,1,376.8,3h66.4A19.7,19.7,0,0,1,463,22.8Z" fill="#0074a3"/></g><g clip-path="url(#b)"><path d="M357,168H463v25.2A19.7,19.7,0,0,1,443.2,213H376.8A19.7,19.7,0,0,1,357,193.2Z"/></g><path d="M415,2.9H401c2.2,0,4,1.4,4,3a5,5,0,0,0,10,0c0-1.6,1.8-3,4-3Z" fill="#303030"/><circle cx="372" cy="20" r="7" fill="#fff"/><rect x="383" y="16" width="34" height="3" rx="1.5" fill="#fff"/><rect x="373" y="46.5" width="24" height="3" rx="1.5" fill="#fff"/><rect x="373" y="78.5" width="24" height="3" rx="1.5" fill="#fff"/><rect x="423" y="78.5" width="24" height="3" rx="1.5" fill="#fff"/><rect x="423" y="46.5" width="24" height="3" rx="1.5" fill="#fff"/><rect x="365" y="100" width="40" height="24" rx="4" fill="#616161"/><rect x="415" y="100" width="40" height="24" rx="4" fill="#616161"/><rect x="365" y="132" width="40" height="24" rx="4" fill="#616161"/><rect x="415" y="132" width="40" height="24" rx="4" fill="#616161"/><rect x="373" y="110.5" width="24" height="3" rx="1.5" fill="#fff"/><rect x="373" y="142.5" width="24" height="3" rx="1.5" fill="#fff"/><rect x="423" y="142.5" width="24" height="3" rx="1.5" fill="#fff"/><rect x="423" y="110.5" width="24" height="3" rx="1.5" fill="#fff"/><rect x="383" y="21" width="34" height="3" rx="1.5" fill="#fff" opacity="0.5"/><path d="M289,233H0V0H301V221A12,12,0,0,1,289,233Z" fill="url(#c)"/><path d="M413.9,234h-7.8a3.1,3.1,0,0,1-3.1-3.1V216h14v14.9A3.1,3.1,0,0,1,413.9,234Z" fill="#c6c5c4"/><path d="M415,224.1l-1.1-.6v.4h-5.4l1-1.1h1.3a.5.5,0,0,0,.5.4.6.6,0,0,0,.5-.6.5.5,0,0,0-.5-.5c-.3,0-.5.1-.5.3h-.9a1.5,1.5,0,0,0-.7.3h0l-1.1,1.2h-.9a1,1,0,0,0-.9-.7.9.9,0,0,0,0,1.8,1,1,0,0,0,.9-.7h2.2l1.2,1.2h0a.7.7,0,0,0,.6.3h.9v.4h1v-1.1h-1v.3h-1.2l-1.1-1.1h4.1v.4Z" fill="#828282"/></svg>