<svg xmlns="http://www.w3.org/2000/svg" xmlns:xlink="http://www.w3.org/1999/xlink" viewBox="0 48 256 168">
  <linearGradient id="h" x1="180" x2="160" y1="180" y2="200" gradientUnits="userSpaceOnUse">
    <stop offset="0" stop-color="#ff7a17"/>
    <stop offset="1"/>
  </linearGradient>
  <linearGradient id="a" x1="88" x2="88" y1="185" y2="220" xlink:href="#h"/>
  <linearGradient id="b" x1="128" x2="128" y1="160" y2="62" gradientUnits="userSpaceOnUse">
    <stop offset=".5" stop-color="#ff7a17"/>
    <stop offset="1" stop-color="#f29c00"/>
  </linearGradient>
  <linearGradient id="l" x1="108" x2="148" y1="108" y2="148" gradientUnits="userSpaceOnUse">
    <stop offset="0" stop-color="#bfd8ff10" />
    <stop offset="1" stop-color="#d4e3ffee"/>
  </linearGradient>
  <clipPath id="g"><circle cx="128" cy="128" r="27"/></clipPath>
  <style>
	.lupa { 
		transform-origin:-16% center;
		/*animation:rotate 3s linear infinite;*/
	}
	.lupa-rev {
		transform-origin:-14% center;
		/*animation:rotate 3s linear reverse infinite;*/
	}
	#g{
		/*animation:rotate 3s linear  infinite;*/
		transform-origin:48% 76%;
	}
  .lupa, .lupa-rev {
    transform: translate(0px,-4px) rotate(2deg);
  }
  .small{transform:scale(0.5) translate(164px, 188px)}
	@keyframes rotate{to{transform:rotate(-360deg)}}
  </style>
  
  <g class="lupa"><path class="lupa-rev" fill="url(#h)" d="M177.97 151.56c-5.6-5.47-13.46-7.82-13.46-7.82a38.26 38.26 0 00-9.8-1.38c-2.13 6.08-1.32 9.64-.08 11.82 3 5.23 9.56 4.16 13.12 10.47l.25.46c.77 1.5 1.1 2.87 1.27 3.9l15.42 15.75c3.33-12.97.8-25.87-6.72-33.2z"/></g>

  <path fill="#ff7a17" d="M105.83 202.1l2.7-1.83 4.17-14.67 33.76 11.02a10.34 10.34 0 013.57.7c1.26.46 3.26 1.63 5.3 3.66.19-2.1.38-4.4.56-6.98 1.82-25.29-.65-33.83-.65-37.67 0-15.3-12.98-27.7-29-27.7s-29 12.4-29 27.7c0 10.74-10.44 30.77 0 41.04a19.31 19.31 0 008.59 4.74z"/>
  <path fill="url(#a)" d="M86.53 196.72c7.5 0 7.5 6.3 14.98 6.3 1.8 0 3.15-.36 4.28-.9-.27-1.55-.55-3.19-.79-4.96-1.52-11.18-.74-19.45.24-29.73.83-8.82 3.17-21.59 10.12-36.77L99.6 121.9c-3.2 10.1-7.24 24.49-10.36 42.12-2.06 11.57-4.1 23.12-4.77 32.89.63-.12 1.3-.2 2.06-.2z"/>
  <path fill="#fff" d="M116.5 196.62c7.5 0 7.5 6.48 14.98 6.48 7.5 0 7.5-6.48 14.98-6.48.28 0 .52.03.77.04 2.28-10.7-.92-23.24-8.52-29.26-5.51-4.36-14.59-6.28-21.7-1.52-6.88 4.6-8.5 13.13-9.12 16.41a41.97 41.97 0 00.64 17.98c2.04-1.75 3.9-3.65 7.97-3.65z"/>
      
  <g id="pupa">
    <path fill="url(#b)" d="M121 68.93l8.29-8.16a1 1 0 011.7.77l-.35 5.59 2.47-1.26a1 1 0 011.43 1.1l-.4 1.78z"/>
    <path fill="url(#b)" d="M190.21 133.26l-11.93-5.65a1 1 0 01-.56-.8l-2.86-27.7a.95.95 0 010-.24 66.05 66.05 0 00.1-20.43c-1.07-7.03-3.77-24.63-12.61-26.37-6.29-1.23-14.64 5.78-20.34 16.81a1 1 0 01-1.16.51 48.75 48.75 0 00-25.7 0 1 1 0 01-1.16-.5c-5.7-11.04-14.05-18.05-20.34-16.82-8.84 1.74-11.54 19.34-12.61 26.37a66.05 66.05 0 00.1 20.43.95.95 0 010 .25l-2.86 27.69a1 1 0 01-.56.8l-11.93 5.65a1 1 0 00-.05 1.79l8.25 4.43-2.1.39c1.12.91 2.86 2.29 5.15 3.9h101.92c2.3-1.61 4.03-2.99 5.15-3.9l-2.1-.4q4.13-2.2 8.25-4.42a1 1 0 00-.05-1.79z"/>
    <path fill="#fff" d="M128 159.93a89.46 89.46 0 0050.96-16.16c-10.24-11.86-29.22-19.84-50.96-19.84s-40.72 7.98-50.96 19.84A89.46 89.46 0 00128 159.93z"/>
    <circle cx="152" cy="111.93" r="6" fill="#3d0a0c"/>
    <circle cx="150" cy="109.93" r="1.5" fill="#6f5556"/>
    <circle cx="104" cy="111.93" r="6" fill="#3d0a0c"/>
    <circle cx="102" cy="109.93" r="1.5" fill="#6f5556"/>
    <path d="M134.82 123.47c-1-2.54-6.3-2.54-6.82-2.54s-5.81 0-6.82 2.53c-1.02 2.57 2.47 7.47 6.82 7.47s7.84-4.9 6.82-7.47z" fill="#3d0a0c"/>
    <path d="M127 129.43h2v7h-2z" fill="#3d0a0c"/>
    <path fill="#fff" d="M109.3 93.9c.8-1.75-.94-5.47-3.3-5.47s-4.1 3.72-3.3 5.46c.92 2.06 5.68 2.06 6.6 0zM153.3 93.9c.8-1.75-.94-5.47-3.3-5.47s-4.1 3.72-3.3 5.46c.92 2.06 5.68 2.06 6.6 0z"/>
    <ellipse cx="102" cy="121.93" fill="#d66323" rx="5" ry="2"/>
    <ellipse cx="154" cy="121.93" fill="#d66323" rx="5" ry="2"/>
    <path fill="#fff" d="M109.34 71.13a1 1 0 00.52-1.4c-4.93-8.97-11.23-13.8-14.96-13.8a3.76 3.76 0 00-.71.07c-2.8.54-6.7 4.93-9.5 22.8a59.36 59.36 0 00-.63 11.7 1 1 0 001.87.43 47.66 47.66 0 0123.41-19.8zM161.8 56a3.76 3.76 0 00-.7-.07c-3.72 0-10 4.8-14.93 13.73a1 1 0 00.52 1.4 47.72 47.72 0 0123.4 19.54 1 1 0 001.87-.46 59.38 59.38 0 00-.66-11.33c-2.79-17.88-6.7-22.27-9.5-22.81z" />
    <path d="M120 135.93a5 5 0 008 0M128 135.93a5 5 0 008 0" class="l" style="fill:none;stroke:#3d0a0c;stroke-width:2px;stroke-linecap:round"/>
    <path fill="url(#b)" d="M94.21 77.22L94 80.93l10-6.32-4.27-2.77a1 1 0 00-1.54.75l-.48 5.25-1.92-1.38a1 1 0 00-1.58.76z"/>
    <path fill="url(#b)" d="M161.79 77.22l.21 3.71-10-6.32 4.27-2.77a1 1 0 011.54.75l.48 5.25 1.92-1.38a1 1 0 011.58.76z"/>
  </g>
  <!--g clip-path="url(#g)"><use transform="scale(1.5) translate(-44 -38)" xlink:href="#pupa"/></g-->
  
  <g class="lupa"><g class="lupa-rev">
    <g class="small">
    <path transform="rotate(1)" fill="#7f6e58" d="M144.97,151.04L144.97,151.04c-2.87,1.66-3.85,5.33-2.2,8.2l26.28,45.53 c1.66,2.87,5.33,3.85,8.2,2.2l0,0c2.87-1.66,3.85-5.33,2.2-8.2l-26.28-45.53C151.5,150.37,147.84,149.39,144.97,151.04z"/>
	  <path fill="#9e9eb5" d="M128 102a26 26 0 11-24.78 18.15A26 26 0 01128 102m0-10a36.02 36.02 0 1010.88 1.69A36 36 0 00127.99 92z"/>
    
    <circle cx="128" cy="128" r="27" fill="url(#l)"/>
    <path fill="none" stroke="#fff" stroke-linecap="round" stroke-linejoin="round" stroke-width="3" d="M108 126a18 18 0 0118-18" opacity=".2"/>
    </g>
    <path fill="url(#h)" d="M169.17 168.32c.24 1.32.29 2.85-.11 4.49-1.28 5.16-6.1 7.5-6.9 7.88-.34.08-6.55 1.51-8.5 7.28a11.05 11.05 0 003.52 11.96c5.86 4.41 15.53.3 20.62-4.14a23.26 23.26 0 006.96-11.32l-15.6-16.15z"/>
  </g></g>
</svg>
